<svg id="Capa_1" enable-background="new 0 0 512 512" height="512" viewBox="0 0 512 512" width="512" xmlns="http://www.w3.org/2000/svg"><g><path d="m0 256c0-141.286 114.455-255.84 255.704-256 139.874-.158 254.605 113.004 256.277 252.868.733 61.336-20.107 117.783-55.408 162.227-.959 1.207-7.615-1.115-8.595.075-6.457 7.836-13.372 15.282-20.702 22.297-1.392 1.332 2.887 6.169 1.465 7.47-2.685 2.456-5.423 4.856-8.212 7.198-6.244 5.243-19.968 2.213-28.122 2.213h-268.68c-8.728 0-26.271 2.851-32.935-2.785-28.288-23.921-51.315-53.869-67.101-87.862-1.342-2.89 3.449-6.979 2.212-9.926-1.652-3.94-3.209-7.929-4.667-11.966-.73-2.022-7.517-2.887-8.197-4.932-8.459-25.422-13.039-52.615-13.039-80.877z" fill="#55a4f9"/><path d="m125.902 221c0 8.284-6.716 15-15 15h-70c-8.284 0-15-6.716-15-15s6.716-15 15-15h70c8.285 0 15 6.716 15 15zm309.898-105.104h-5v-5c0-8.285-6.716-15-15-15h-30c-8.284 0-15 6.715-15 15v5h-5c-8.284 0-15 6.715-15 15 0 8.284 6.716 15 15 15h70c8.284 0 15-6.716 15-15 0-8.285-6.716-15-15-15zm-291.839-19.896h-40c-8.284 0-15 6.716-15 15s6.716 15 15 15h40c8.284 0 15-6.716 15-15s-6.716-15-15-15zm257.927 116.044h-40c-8.284 0-15 6.716-15 15s6.716 15 15 15h40c8.284 0 15-6.716 15-15s-6.715-15-15-15z" fill="#76b6fa"/><path d="m423.039 450c-44.834 38.639-103.208 62-167.039 62s-122.205-23.361-167.039-62h79.132c-.632-2.971-.965-6.053-.965-9.212 0-24.352 19.741-44.093 44.093-44.093 22.226 0 40.611 16.445 43.651 37.831 5.779-8.11 15.26-13.398 25.977-13.398 16.592 0 30.222 12.676 31.736 28.873h110.454z" fill="#1ed688"/><path d="m271 411.695v99.873c-4.963.287-9.965.433-15 .433s-10.037-.146-15-.433v-99.873c0-8.284 6.716-15 15-15s15 6.716 15 15z" fill="#a2abb8"/><path d="m456.573 415.095c-8.476 10.672-17.786 20.652-27.832 29.841-34.168-8.405-70.1-27.111-102.183-55.355-33.774-29.734-57.605-65.04-69.776-99.533-.956.798-1.917 1.582-2.884 2.348-.348-.632-.693-1.269-1.034-1.909-24.514 26.675-59.765 49.626-101.859 63.825-45.127 15.222-90.09 17.678-127.317 9.389-4.035-8.688-7.596-17.641-10.652-26.824 24.581-29.721 62.3-55.556 108.132-71.016 41.301-13.932 82.465-17.169 117.687-11.264-9.018-33.143-10.424-72.406-2.265-113.016 11.548-57.483 39.73-105.076 74.212-132.429 21.242 38.549 28.856 93.333 17.308 150.816-8.155 40.59-24.603 76.248-45.706 103.332 35.251 7.941 72.609 26.963 105.837 56.217 32.487 28.597 55.772 62.351 68.332 95.578z" fill="#86befb"/><path d="m493.28 401.679c-43.316 7.807-97.66-2.489-148.437-31.805-38.969-22.499-69.287-52.419-88.014-83.839-.78.971-1.568 1.928-2.365 2.871-.466-.551-.929-1.107-1.39-1.669-18.78 30.981-48.82 60.426-87.292 82.638-50.776 29.316-105.12 39.612-148.437 31.805 14.897-41.417 50.986-83.332 101.762-112.647 37.748-21.794 77.468-33.076 113.163-34.223-15.37-30.718-24.481-68.935-24.481-110.356 0-58.632 18.255-110.843 46.674-144.453 28.419 33.609 46.674 85.821 46.674 144.453 0 41.401-9.103 79.6-24.458 110.31 36.124.843 76.497 12.134 114.837 34.27 50.778 29.313 86.866 71.229 101.764 112.645z" fill="#c8d2dc"/><path d="m245.908 254.872c-18.032 34.776-50.4 68.445-93.206 93.16-42.631 24.613-87.777 35.818-126.8 34.16 18.032-34.776 50.4-68.445 93.206-93.159 42.632-24.615 87.777-35.82 126.8-34.161zm145.609 34.16c-38.339-22.135-78.713-33.427-114.837-34.27 15.356-30.71 24.458-68.909 24.458-110.31 0-50.315-13.444-95.902-35.218-129.062-21.774 33.16-35.218 78.747-35.218 129.062s13.444 95.901 35.218 129.062c2.136-3.254 4.192-6.627 6.163-10.113 18.442 33.118 49.812 64.906 90.712 88.52 41.59 24.012 85.574 35.264 123.931 34.259-17.577-36.18-50.767-71.49-95.209-97.148z" fill="#dce6eb"/><path d="m271 313.038v113.409c0 8.249-6.687 14.936-14.936 14.936h-.128c-8.249 0-14.936-6.687-14.936-14.936v-112.953c-19.251-6.073-33.21-24.07-33.21-45.329 0-26.246 21.277-47.523 47.523-47.523s47.523 21.277 47.523 47.523c0 20.75-13.298 38.393-31.836 44.873z" fill="#b9c3cd"/><path d="m277.377 268.165c0 12.186-9.879 22.064-22.064 22.064-12.186 0-22.064-9.879-22.064-22.064 0-12.186 9.878-22.064 22.064-22.064s22.064 9.879 22.064 22.064z" fill="#909ba6"/><path d="m244.875 79.447c.137 4.14-3.107 7.607-7.247 7.745-59.181 1.965-108.515 43.817-119.974 101.779-.706 3.573-3.841 6.047-7.349 6.047-.482 0-.972-.046-1.463-.144-4.063-.803-6.707-4.748-5.903-8.812 6.097-30.845 22.648-59.177 46.603-79.776 24.32-20.913 55.426-33.019 87.587-34.087 4.156-.172 7.608 3.109 7.746 7.248zm-27.501 35.012c-45.774 14.329-76.63 57.876-75.036 105.897.135 4.055 3.464 7.251 7.492 7.251.084 0 .168-.001.253-.004 4.14-.138 7.385-3.605 7.248-7.745-1.371-41.307 25.163-78.763 64.525-91.085 3.953-1.237 6.154-5.445 4.917-9.397-1.239-3.954-5.444-6.158-9.399-4.917zm209.882 55.933c-2.238-3.485-6.882-4.495-10.363-2.256-3.485 2.238-4.495 6.879-2.256 10.363 31.936 49.709 25.41 114.076-15.868 156.527-2.888 2.97-2.821 7.718.148 10.605 1.458 1.418 3.344 2.123 5.228 2.123 1.955 0 3.908-.76 5.378-2.271 22.434-23.07 36.451-53.362 39.473-85.296 2.975-31.453-4.745-63.343-21.74-89.795zm-52.168 2.61c-2.972-2.887-7.72-2.82-10.605.148-2.888 2.97-2.821 7.718.148 10.605 29.632 28.813 36.486 74.2 16.669 110.373-1.99 3.633-.659 8.191 2.974 10.181 1.144.627 2.379.924 3.597.924 2.651 0 5.221-1.408 6.584-3.897 23.045-42.065 15.081-94.838-19.367-128.334z" fill="#fff"/></g></svg>